<?xml version="1.0" encoding="UTF-8" standalone="no"?>
<!-- Created with Inkscape (http://www.inkscape.org/) -->

<svg
   width="35.39389mm"
   height="28.168938mm"
   viewBox="0 0 35.39389 28.168938"
   version="1.1"
   id="svg5"
   xml:space="preserve"
   inkscape:version="1.2.2 (b0a8486541, 2022-12-01)"
   sodipodi:docname="tutter.svg"
   xmlns:inkscape="http://www.inkscape.org/namespaces/inkscape"
   xmlns:sodipodi="http://sodipodi.sourceforge.net/DTD/sodipodi-0.dtd"
   xmlns="http://www.w3.org/2000/svg"
   xmlns:svg="http://www.w3.org/2000/svg"><sodipodi:namedview
     id="namedview7"
     pagecolor="#ffffff"
     bordercolor="#666666"
     borderopacity="1.0"
     inkscape:showpageshadow="2"
     inkscape:pageopacity="0.0"
     inkscape:pagecheckerboard="0"
     inkscape:deskcolor="#fcfcfc"
     inkscape:document-units="mm"
     showgrid="false"
     showguides="false"
     inkscape:zoom="2.0686841"
     inkscape:cx="154.20431"
     inkscape:cy="221.63848"
     inkscape:window-width="1920"
     inkscape:window-height="1006"
     inkscape:window-x="0"
     inkscape:window-y="25"
     inkscape:window-maximized="1"
     inkscape:current-layer="layer1"><sodipodi:guide
       position="67.55235,191.88278"
       orientation="0,-1"
       id="guide604"
       inkscape:locked="false" /></sodipodi:namedview><defs
     id="defs2" /><g
     inkscape:label="Layer 1"
     inkscape:groupmode="layer"
     id="layer1"
     transform="translate(-6.9689628,-68.210783)"><path
       style="fill:#1d9bf0;fill-opacity:1;stroke:none;stroke-width:0.264583px;stroke-linecap:butt;stroke-linejoin:miter;stroke-opacity:1"
       d="m 42.362853,73.196304 c -3.77165,-2.30079 -7.76013,-3.88118 -11.89191,-4.98552 -3.861516,0.122745 -10.478429,0.0099 -8.60448,13.24174 1.873949,13.231877 -14.8975002,12.720357 -14.8975002,12.720357 0.16611,0.52363 23.2444802,8.471869 23.4078702,-9.422547 0.0618,-6.76931 3.165429,-9.527521 3.165429,-9.527521 2.42841,-1.22709 6.118151,-1.532159 8.820591,-2.026509 z"
       id="path794-5-3"
       sodipodi:nodetypes="cczcscc"
       inkscape:export-filename="tutter_with_text.svg"
       inkscape:export-xdpi="284.879"
       inkscape:export-ydpi="284.879" /><g
       id="g2999-62-6"
       transform="matrix(0.03054238,0,0,0.03054238,20.18798,60.528458)"><path
         id="path2994-9-7"
         transform="translate(45.883117,292.76069)"
         d="m 80,0 v 20 h 20 20 v 0 h 20 20 v 20 h 20 v 20 h 20 v 20 h 20 v 20 h 20 20 20 20 20 20 V 80 h 20 V 60 h 20 V 40 h 20 V 0 h -20 -20 -20 -20 -20 -20 -20 -20 -20 -20 -20 -20 -20 -20 v 0 h -20 z m 0,20 H 60 40 v 20 h 20 20 z"
         style="fill:#000000;fill-opacity:1;stroke:none"
         inkscape:connector-curvature="0"
         sodipodi:nodetypes="ccccccccccccccccccccccccccccccccccccccccccccccccccc" /><path
         transform="translate(45.883117,292.76069)"
         id="path2990-1-5"
         d="m 200,20 v 20 h 20 V 20 Z m 20,20 v 20 h 20 V 40 Z m 20,0 h 20 V 20 h -20 z m 20,0 v 20 h 20 V 40 Z m 20,20 v 20 h 20 V 60 Z m -20,0 h -20 v 20 h 20 z"
         style="fill:#ffffff;fill-opacity:1;stroke:none"
         inkscape:connector-curvature="0" /></g></g></svg>
